<mxfile host="65bd71144e">
    <diagram id="HtC1SKBWH9MYsBn6g4hb" name="Page-1">
        <mxGraphModel dx="1403" dy="1225" grid="1" gridSize="10" guides="1" tooltips="1" connect="1" arrows="1" fold="1" page="1" pageScale="1" pageWidth="827" pageHeight="1169" math="0" shadow="0">
            <root>
                <mxCell id="0"/>
                <mxCell id="1" parent="0"/>
                <mxCell id="88" value="" style="rounded=0;whiteSpace=wrap;html=1;" vertex="1" parent="1">
                    <mxGeometry x="40" y="50" width="760" height="1080" as="geometry"/>
                </mxCell>
                <mxCell id="2" value="Printable&lt;br&gt;{abstract}" style="swimlane;fontStyle=0;childLayout=stackLayout;horizontal=1;startSize=30;horizontalStack=0;resizeParent=1;resizeParentMax=0;resizeLast=0;collapsible=1;marginBottom=0;whiteSpace=wrap;html=1;" parent="1" vertex="1">
                    <mxGeometry x="130" y="110" width="260" height="70" as="geometry"/>
                </mxCell>
                <mxCell id="3" value="+ operator&amp;lt;&amp;lt;(ostream, Printable): ostream" style="text;strokeColor=none;fillColor=none;align=left;verticalAlign=middle;spacingLeft=4;spacingRight=4;overflow=hidden;points=[[0,0.5],[1,0.5]];portConstraint=eastwest;rotatable=0;whiteSpace=wrap;html=1;" parent="2" vertex="1">
                    <mxGeometry y="30" width="260" height="20" as="geometry"/>
                </mxCell>
                <mxCell id="4" value="&lt;div style=&quot;color: rgb(204, 204, 204); background-color: rgb(31, 31, 31); font-family: Consolas, &amp;quot;Courier New&amp;quot;, monospace; font-size: 14px; line-height: 19px;&quot;&gt;&lt;/div&gt;+print(ostream): ostream = 0" style="text;strokeColor=none;fillColor=none;align=left;verticalAlign=middle;spacingLeft=4;spacingRight=4;overflow=hidden;points=[[0,0.5],[1,0.5]];portConstraint=eastwest;rotatable=0;whiteSpace=wrap;html=1;" parent="2" vertex="1">
                    <mxGeometry y="50" width="260" height="20" as="geometry"/>
                </mxCell>
                <mxCell id="35" style="edgeStyle=none;html=1;endArrow=block;endFill=1;" parent="1" source="22" target="2" edge="1">
                    <mxGeometry relative="1" as="geometry"/>
                </mxCell>
                <mxCell id="83" value="Extends" style="edgeLabel;html=1;align=center;verticalAlign=middle;resizable=0;points=[];" parent="35" vertex="1" connectable="0">
                    <mxGeometry x="0.258" y="4" relative="1" as="geometry">
                        <mxPoint x="4" y="10" as="offset"/>
                    </mxGeometry>
                </mxCell>
                <mxCell id="22" value="Creature" style="swimlane;fontStyle=0;align=center;verticalAlign=top;childLayout=stackLayout;horizontal=1;startSize=30;horizontalStack=0;resizeParent=1;resizeParentMax=0;resizeLast=0;collapsible=0;marginBottom=0;html=1;" parent="1" vertex="1">
                    <mxGeometry x="130" y="250" width="261" height="162" as="geometry"/>
                </mxCell>
                <mxCell id="24" value="# age_: int" style="text;html=1;strokeColor=none;fillColor=none;align=left;verticalAlign=middle;spacingLeft=4;spacingRight=4;overflow=hidden;rotatable=0;points=[[0,0.5],[1,0.5]];portConstraint=eastwest;" parent="22" vertex="1">
                    <mxGeometry y="30" width="261" height="20" as="geometry"/>
                </mxCell>
                <mxCell id="30" value="# name_: string" style="text;html=1;strokeColor=none;fillColor=none;align=left;verticalAlign=middle;spacingLeft=4;spacingRight=4;overflow=hidden;rotatable=0;points=[[0,0.5],[1,0.5]];portConstraint=eastwest;" parent="22" vertex="1">
                    <mxGeometry y="50" width="261" height="20" as="geometry"/>
                </mxCell>
                <mxCell id="27" value="" style="line;strokeWidth=1;fillColor=none;align=left;verticalAlign=middle;spacingTop=-1;spacingLeft=3;spacingRight=3;rotatable=0;labelPosition=right;points=[];portConstraint=eastwest;" parent="22" vertex="1">
                    <mxGeometry y="70" width="261" height="8" as="geometry"/>
                </mxCell>
                <mxCell id="28" value="+ Creature(int, string)" style="text;html=1;strokeColor=none;fillColor=none;align=left;verticalAlign=middle;spacingLeft=4;spacingRight=4;overflow=hidden;rotatable=0;points=[[0,0.5],[1,0.5]];portConstraint=eastwest;" parent="22" vertex="1">
                    <mxGeometry y="78" width="261" height="20" as="geometry"/>
                </mxCell>
                <mxCell id="33" value="+ getName(): string" style="text;html=1;strokeColor=none;fillColor=none;align=left;verticalAlign=middle;spacingLeft=4;spacingRight=4;overflow=hidden;rotatable=0;points=[[0,0.5],[1,0.5]];portConstraint=eastwest;" parent="22" vertex="1">
                    <mxGeometry y="98" width="261" height="20" as="geometry"/>
                </mxCell>
                <mxCell id="31" value="+ operator&amp;lt;&amp;lt;(ostream, Printable): ostream" style="text;strokeColor=none;fillColor=none;align=left;verticalAlign=middle;spacingLeft=4;spacingRight=4;overflow=hidden;points=[[0,0.5],[1,0.5]];portConstraint=eastwest;rotatable=0;whiteSpace=wrap;html=1;" parent="22" vertex="1">
                    <mxGeometry y="118" width="261" height="22" as="geometry"/>
                </mxCell>
                <mxCell id="32" value="&lt;div style=&quot;color: rgb(204, 204, 204); background-color: rgb(31, 31, 31); font-family: Consolas, &amp;quot;Courier New&amp;quot;, monospace; font-size: 14px; line-height: 19px;&quot;&gt;&lt;/div&gt;+ print(ostream): ostream" style="text;strokeColor=none;fillColor=none;align=left;verticalAlign=middle;spacingLeft=4;spacingRight=4;overflow=hidden;points=[[0,0.5],[1,0.5]];portConstraint=eastwest;rotatable=0;whiteSpace=wrap;html=1;" parent="22" vertex="1">
                    <mxGeometry y="140" width="261" height="22" as="geometry"/>
                </mxCell>
                <mxCell id="44" style="edgeStyle=none;html=1;endArrow=block;endFill=1;" parent="1" source="36" target="22" edge="1">
                    <mxGeometry relative="1" as="geometry"/>
                </mxCell>
                <mxCell id="36" value="Animal" style="swimlane;fontStyle=0;align=center;verticalAlign=top;childLayout=stackLayout;horizontal=1;startSize=30;horizontalStack=0;resizeParent=1;resizeParentMax=0;resizeLast=0;collapsible=0;marginBottom=0;html=1;" parent="1" vertex="1">
                    <mxGeometry x="130" y="480" width="261" height="182" as="geometry"/>
                </mxCell>
                <mxCell id="37" value="# age_: int" style="text;html=1;strokeColor=none;fillColor=none;align=left;verticalAlign=middle;spacingLeft=4;spacingRight=4;overflow=hidden;rotatable=0;points=[[0,0.5],[1,0.5]];portConstraint=eastwest;" parent="36" vertex="1">
                    <mxGeometry y="30" width="261" height="20" as="geometry"/>
                </mxCell>
                <mxCell id="38" value="# name_: string" style="text;html=1;strokeColor=none;fillColor=none;align=left;verticalAlign=middle;spacingLeft=4;spacingRight=4;overflow=hidden;rotatable=0;points=[[0,0.5],[1,0.5]];portConstraint=eastwest;" parent="36" vertex="1">
                    <mxGeometry y="50" width="261" height="20" as="geometry"/>
                </mxCell>
                <mxCell id="45" value="# gender_: char" style="text;html=1;strokeColor=none;fillColor=none;align=left;verticalAlign=middle;spacingLeft=4;spacingRight=4;overflow=hidden;rotatable=0;points=[[0,0.5],[1,0.5]];portConstraint=eastwest;" parent="36" vertex="1">
                    <mxGeometry y="70" width="261" height="20" as="geometry"/>
                </mxCell>
                <mxCell id="39" value="" style="line;strokeWidth=1;fillColor=none;align=left;verticalAlign=middle;spacingTop=-1;spacingLeft=3;spacingRight=3;rotatable=0;labelPosition=right;points=[];portConstraint=eastwest;" parent="36" vertex="1">
                    <mxGeometry y="90" width="261" height="8" as="geometry"/>
                </mxCell>
                <mxCell id="42" value="+ Animal(int, string, char)" style="text;html=1;strokeColor=none;fillColor=none;align=left;verticalAlign=middle;spacingLeft=4;spacingRight=4;overflow=hidden;rotatable=0;points=[[0,0.5],[1,0.5]];portConstraint=eastwest;" parent="36" vertex="1">
                    <mxGeometry y="98" width="261" height="20" as="geometry"/>
                </mxCell>
                <mxCell id="43" value="+ getName(): string" style="text;html=1;strokeColor=none;fillColor=none;align=left;verticalAlign=middle;spacingLeft=4;spacingRight=4;overflow=hidden;rotatable=0;points=[[0,0.5],[1,0.5]];portConstraint=eastwest;" parent="36" vertex="1">
                    <mxGeometry y="118" width="261" height="20" as="geometry"/>
                </mxCell>
                <mxCell id="59" value="+ operator&amp;lt;&amp;lt;(ostream, Printable): ostream" style="text;strokeColor=none;fillColor=none;align=left;verticalAlign=middle;spacingLeft=4;spacingRight=4;overflow=hidden;points=[[0,0.5],[1,0.5]];portConstraint=eastwest;rotatable=0;whiteSpace=wrap;html=1;" parent="36" vertex="1">
                    <mxGeometry y="138" width="261" height="22" as="geometry"/>
                </mxCell>
                <mxCell id="41" value="&lt;div style=&quot;color: rgb(204, 204, 204); background-color: rgb(31, 31, 31); font-family: Consolas, &amp;quot;Courier New&amp;quot;, monospace; font-size: 14px; line-height: 19px;&quot;&gt;&lt;/div&gt;+ print(ostream): ostream" style="text;strokeColor=none;fillColor=none;align=left;verticalAlign=middle;spacingLeft=4;spacingRight=4;overflow=hidden;points=[[0,0.5],[1,0.5]];portConstraint=eastwest;rotatable=0;whiteSpace=wrap;html=1;" parent="36" vertex="1">
                    <mxGeometry y="160" width="261" height="22" as="geometry"/>
                </mxCell>
                <mxCell id="55" style="edgeStyle=none;html=1;endArrow=block;endFill=1;" parent="1" source="46" target="36" edge="1">
                    <mxGeometry relative="1" as="geometry"/>
                </mxCell>
                <mxCell id="46" value="Human" style="swimlane;fontStyle=0;align=center;verticalAlign=top;childLayout=stackLayout;horizontal=1;startSize=30;horizontalStack=0;resizeParent=1;resizeParentMax=0;resizeLast=0;collapsible=0;marginBottom=0;html=1;" parent="1" vertex="1">
                    <mxGeometry x="130" y="730" width="261" height="284" as="geometry"/>
                </mxCell>
                <mxCell id="54" value="+ getName(): string" style="text;html=1;strokeColor=none;fillColor=none;align=left;verticalAlign=middle;spacingLeft=4;spacingRight=4;overflow=hidden;rotatable=0;points=[[0,0.5],[1,0.5]];portConstraint=eastwest;" parent="46" vertex="1">
                    <mxGeometry y="30" width="261" height="20" as="geometry"/>
                </mxCell>
                <mxCell id="47" value="# age_: int" style="text;html=1;strokeColor=none;fillColor=none;align=left;verticalAlign=middle;spacingLeft=4;spacingRight=4;overflow=hidden;rotatable=0;points=[[0,0.5],[1,0.5]];portConstraint=eastwest;" parent="46" vertex="1">
                    <mxGeometry y="50" width="261" height="20" as="geometry"/>
                </mxCell>
                <mxCell id="48" value="# name_: string" style="text;html=1;strokeColor=none;fillColor=none;align=left;verticalAlign=middle;spacingLeft=4;spacingRight=4;overflow=hidden;rotatable=0;points=[[0,0.5],[1,0.5]];portConstraint=eastwest;" parent="46" vertex="1">
                    <mxGeometry y="70" width="261" height="20" as="geometry"/>
                </mxCell>
                <mxCell id="49" value="# gender_: char" style="text;html=1;strokeColor=none;fillColor=none;align=left;verticalAlign=middle;spacingLeft=4;spacingRight=4;overflow=hidden;rotatable=0;points=[[0,0.5],[1,0.5]];portConstraint=eastwest;" parent="46" vertex="1">
                    <mxGeometry y="90" width="261" height="20" as="geometry"/>
                </mxCell>
                <mxCell id="57" value="# materialStatus_: int" style="text;html=1;strokeColor=none;fillColor=none;align=left;verticalAlign=middle;spacingLeft=4;spacingRight=4;overflow=hidden;rotatable=0;points=[[0,0.5],[1,0.5]];portConstraint=eastwest;" parent="46" vertex="1">
                    <mxGeometry y="110" width="261" height="20" as="geometry"/>
                </mxCell>
                <mxCell id="56" value="# partner_: string" style="text;html=1;strokeColor=none;fillColor=none;align=left;verticalAlign=middle;spacingLeft=4;spacingRight=4;overflow=hidden;rotatable=0;points=[[0,0.5],[1,0.5]];portConstraint=eastwest;" parent="46" vertex="1">
                    <mxGeometry y="130" width="261" height="20" as="geometry"/>
                </mxCell>
                <mxCell id="50" value="" style="line;strokeWidth=1;fillColor=none;align=left;verticalAlign=middle;spacingTop=-1;spacingLeft=3;spacingRight=3;rotatable=0;labelPosition=right;points=[];portConstraint=eastwest;" parent="46" vertex="1">
                    <mxGeometry y="150" width="261" height="8" as="geometry"/>
                </mxCell>
                <mxCell id="58" value="+&amp;nbsp;&lt;span style=&quot;background-color: initial;&quot;&gt;Human(int, string, char, int, string&lt;/span&gt;&lt;span style=&quot;background-color: initial;&quot;&gt;)&lt;/span&gt;&lt;span style=&quot;background-color: initial;&quot;&gt;&lt;br&gt;&lt;/span&gt;" style="text;html=1;strokeColor=none;fillColor=none;align=left;verticalAlign=middle;spacingLeft=4;spacingRight=4;overflow=hidden;rotatable=0;points=[[0,0.5],[1,0.5]];portConstraint=eastwest;" parent="46" vertex="1">
                    <mxGeometry y="158" width="261" height="20" as="geometry"/>
                </mxCell>
                <mxCell id="53" value="+&amp;nbsp;&lt;span style=&quot;background-color: initial;&quot;&gt;Human(int, string, char, int&lt;/span&gt;&lt;span style=&quot;background-color: initial;&quot;&gt;)&lt;/span&gt;&lt;span style=&quot;background-color: initial;&quot;&gt;&lt;br&gt;&lt;/span&gt;" style="text;html=1;strokeColor=none;fillColor=none;align=left;verticalAlign=middle;spacingLeft=4;spacingRight=4;overflow=hidden;rotatable=0;points=[[0,0.5],[1,0.5]];portConstraint=eastwest;" parent="46" vertex="1">
                    <mxGeometry y="178" width="261" height="20" as="geometry"/>
                </mxCell>
                <mxCell id="51" value="+ setPartner(string): void" style="text;strokeColor=none;fillColor=none;align=left;verticalAlign=middle;spacingLeft=4;spacingRight=4;overflow=hidden;points=[[0,0.5],[1,0.5]];portConstraint=eastwest;rotatable=0;whiteSpace=wrap;html=1;" parent="46" vertex="1">
                    <mxGeometry y="198" width="261" height="22" as="geometry"/>
                </mxCell>
                <mxCell id="69" value="+ getName(): string" style="text;html=1;strokeColor=none;fillColor=none;align=left;verticalAlign=middle;spacingLeft=4;spacingRight=4;overflow=hidden;rotatable=0;points=[[0,0.5],[1,0.5]];portConstraint=eastwest;" parent="46" vertex="1">
                    <mxGeometry y="220" width="261" height="20" as="geometry"/>
                </mxCell>
                <mxCell id="40" value="+ operator&amp;lt;&amp;lt;(ostream, Printable): ostream" style="text;strokeColor=none;fillColor=none;align=left;verticalAlign=middle;spacingLeft=4;spacingRight=4;overflow=hidden;points=[[0,0.5],[1,0.5]];portConstraint=eastwest;rotatable=0;whiteSpace=wrap;html=1;" parent="46" vertex="1">
                    <mxGeometry y="240" width="261" height="22" as="geometry"/>
                </mxCell>
                <mxCell id="52" value="&lt;div style=&quot;color: rgb(204, 204, 204); background-color: rgb(31, 31, 31); font-family: Consolas, &amp;quot;Courier New&amp;quot;, monospace; font-size: 14px; line-height: 19px;&quot;&gt;&lt;/div&gt;+ print(ostream): ostream" style="text;strokeColor=none;fillColor=none;align=left;verticalAlign=middle;spacingLeft=4;spacingRight=4;overflow=hidden;points=[[0,0.5],[1,0.5]];portConstraint=eastwest;rotatable=0;whiteSpace=wrap;html=1;" parent="46" vertex="1">
                    <mxGeometry y="262" width="261" height="22" as="geometry"/>
                </mxCell>
                <mxCell id="71" style="edgeStyle=none;html=1;endArrow=block;endFill=1;" parent="1" source="60" target="22" edge="1">
                    <mxGeometry relative="1" as="geometry"/>
                </mxCell>
                <mxCell id="60" value="Plant" style="swimlane;fontStyle=0;align=center;verticalAlign=top;childLayout=stackLayout;horizontal=1;startSize=30;horizontalStack=0;resizeParent=1;resizeParentMax=0;resizeLast=0;collapsible=0;marginBottom=0;html=1;" parent="1" vertex="1">
                    <mxGeometry x="460" y="240" width="261" height="182" as="geometry"/>
                </mxCell>
                <mxCell id="68" value="# age_: int" style="text;html=1;strokeColor=none;fillColor=none;align=left;verticalAlign=middle;spacingLeft=4;spacingRight=4;overflow=hidden;rotatable=0;points=[[0,0.5],[1,0.5]];portConstraint=eastwest;" parent="60" vertex="1">
                    <mxGeometry y="30" width="261" height="20" as="geometry"/>
                </mxCell>
                <mxCell id="61" value="# hasLeaves_: bool" style="text;html=1;strokeColor=none;fillColor=none;align=left;verticalAlign=middle;spacingLeft=4;spacingRight=4;overflow=hidden;rotatable=0;points=[[0,0.5],[1,0.5]];portConstraint=eastwest;" parent="60" vertex="1">
                    <mxGeometry y="50" width="261" height="20" as="geometry"/>
                </mxCell>
                <mxCell id="62" value="# name_: string" style="text;html=1;strokeColor=none;fillColor=none;align=left;verticalAlign=middle;spacingLeft=4;spacingRight=4;overflow=hidden;rotatable=0;points=[[0,0.5],[1,0.5]];portConstraint=eastwest;" parent="60" vertex="1">
                    <mxGeometry y="70" width="261" height="20" as="geometry"/>
                </mxCell>
                <mxCell id="63" value="" style="line;strokeWidth=1;fillColor=none;align=left;verticalAlign=middle;spacingTop=-1;spacingLeft=3;spacingRight=3;rotatable=0;labelPosition=right;points=[];portConstraint=eastwest;" parent="60" vertex="1">
                    <mxGeometry y="90" width="261" height="8" as="geometry"/>
                </mxCell>
                <mxCell id="64" value="+ Plant(int, string, bool)" style="text;html=1;strokeColor=none;fillColor=none;align=left;verticalAlign=middle;spacingLeft=4;spacingRight=4;overflow=hidden;rotatable=0;points=[[0,0.5],[1,0.5]];portConstraint=eastwest;" parent="60" vertex="1">
                    <mxGeometry y="98" width="261" height="20" as="geometry"/>
                </mxCell>
                <mxCell id="65" value="+ getName(): string" style="text;html=1;strokeColor=none;fillColor=none;align=left;verticalAlign=middle;spacingLeft=4;spacingRight=4;overflow=hidden;rotatable=0;points=[[0,0.5],[1,0.5]];portConstraint=eastwest;" parent="60" vertex="1">
                    <mxGeometry y="118" width="261" height="20" as="geometry"/>
                </mxCell>
                <mxCell id="66" value="+ operator&amp;lt;&amp;lt;(ostream, Printable): ostream" style="text;strokeColor=none;fillColor=none;align=left;verticalAlign=middle;spacingLeft=4;spacingRight=4;overflow=hidden;points=[[0,0.5],[1,0.5]];portConstraint=eastwest;rotatable=0;whiteSpace=wrap;html=1;" parent="60" vertex="1">
                    <mxGeometry y="138" width="261" height="22" as="geometry"/>
                </mxCell>
                <mxCell id="67" value="&lt;div style=&quot;color: rgb(204, 204, 204); background-color: rgb(31, 31, 31); font-family: Consolas, &amp;quot;Courier New&amp;quot;, monospace; font-size: 14px; line-height: 19px;&quot;&gt;&lt;/div&gt;+ print(ostream): ostream" style="text;strokeColor=none;fillColor=none;align=left;verticalAlign=middle;spacingLeft=4;spacingRight=4;overflow=hidden;points=[[0,0.5],[1,0.5]];portConstraint=eastwest;rotatable=0;whiteSpace=wrap;html=1;" parent="60" vertex="1">
                    <mxGeometry y="160" width="261" height="22" as="geometry"/>
                </mxCell>
                <mxCell id="81" style="edgeStyle=none;html=1;endArrow=block;endFill=1;" parent="1" source="72" target="60" edge="1">
                    <mxGeometry relative="1" as="geometry"/>
                </mxCell>
                <mxCell id="72" value="Flower" style="swimlane;fontStyle=0;align=center;verticalAlign=top;childLayout=stackLayout;horizontal=1;startSize=30;horizontalStack=0;resizeParent=1;resizeParentMax=0;resizeLast=0;collapsible=0;marginBottom=0;html=1;" parent="1" vertex="1">
                    <mxGeometry x="460" y="490" width="261" height="202" as="geometry"/>
                </mxCell>
                <mxCell id="73" value="# age_: int" style="text;html=1;strokeColor=none;fillColor=none;align=left;verticalAlign=middle;spacingLeft=4;spacingRight=4;overflow=hidden;rotatable=0;points=[[0,0.5],[1,0.5]];portConstraint=eastwest;" parent="72" vertex="1">
                    <mxGeometry y="30" width="261" height="20" as="geometry"/>
                </mxCell>
                <mxCell id="74" value="# hasLeaves_: bool" style="text;html=1;strokeColor=none;fillColor=none;align=left;verticalAlign=middle;spacingLeft=4;spacingRight=4;overflow=hidden;rotatable=0;points=[[0,0.5],[1,0.5]];portConstraint=eastwest;" parent="72" vertex="1">
                    <mxGeometry y="50" width="261" height="20" as="geometry"/>
                </mxCell>
                <mxCell id="75" value="# name_: string" style="text;html=1;strokeColor=none;fillColor=none;align=left;verticalAlign=middle;spacingLeft=4;spacingRight=4;overflow=hidden;rotatable=0;points=[[0,0.5],[1,0.5]];portConstraint=eastwest;" parent="72" vertex="1">
                    <mxGeometry y="70" width="261" height="20" as="geometry"/>
                </mxCell>
                <mxCell id="82" value="# color_: string" style="text;html=1;strokeColor=none;fillColor=none;align=left;verticalAlign=middle;spacingLeft=4;spacingRight=4;overflow=hidden;rotatable=0;points=[[0,0.5],[1,0.5]];portConstraint=eastwest;" parent="72" vertex="1">
                    <mxGeometry y="90" width="261" height="20" as="geometry"/>
                </mxCell>
                <mxCell id="76" value="" style="line;strokeWidth=1;fillColor=none;align=left;verticalAlign=middle;spacingTop=-1;spacingLeft=3;spacingRight=3;rotatable=0;labelPosition=right;points=[];portConstraint=eastwest;" parent="72" vertex="1">
                    <mxGeometry y="110" width="261" height="8" as="geometry"/>
                </mxCell>
                <mxCell id="77" value="+&amp;nbsp;Flower(int, string, bool, string)" style="text;html=1;strokeColor=none;fillColor=none;align=left;verticalAlign=middle;spacingLeft=4;spacingRight=4;overflow=hidden;rotatable=0;points=[[0,0.5],[1,0.5]];portConstraint=eastwest;" parent="72" vertex="1">
                    <mxGeometry y="118" width="261" height="20" as="geometry"/>
                </mxCell>
                <mxCell id="78" value="+ getName(): string" style="text;html=1;strokeColor=none;fillColor=none;align=left;verticalAlign=middle;spacingLeft=4;spacingRight=4;overflow=hidden;rotatable=0;points=[[0,0.5],[1,0.5]];portConstraint=eastwest;" parent="72" vertex="1">
                    <mxGeometry y="138" width="261" height="20" as="geometry"/>
                </mxCell>
                <mxCell id="79" value="+ operator&amp;lt;&amp;lt;(ostream, Printable): ostream" style="text;strokeColor=none;fillColor=none;align=left;verticalAlign=middle;spacingLeft=4;spacingRight=4;overflow=hidden;points=[[0,0.5],[1,0.5]];portConstraint=eastwest;rotatable=0;whiteSpace=wrap;html=1;" parent="72" vertex="1">
                    <mxGeometry y="158" width="261" height="22" as="geometry"/>
                </mxCell>
                <mxCell id="80" value="&lt;div style=&quot;color: rgb(204, 204, 204); background-color: rgb(31, 31, 31); font-family: Consolas, &amp;quot;Courier New&amp;quot;, monospace; font-size: 14px; line-height: 19px;&quot;&gt;&lt;/div&gt;+ print(ostream): ostream" style="text;strokeColor=none;fillColor=none;align=left;verticalAlign=middle;spacingLeft=4;spacingRight=4;overflow=hidden;points=[[0,0.5],[1,0.5]];portConstraint=eastwest;rotatable=0;whiteSpace=wrap;html=1;" parent="72" vertex="1">
                    <mxGeometry y="180" width="261" height="22" as="geometry"/>
                </mxCell>
                <mxCell id="84" value="Extends" style="edgeLabel;html=1;align=center;verticalAlign=middle;resizable=0;points=[];" vertex="1" connectable="0" parent="1">
                    <mxGeometry x="260.0042556341804" y="449.9984722494869" as="geometry"/>
                </mxCell>
                <mxCell id="85" value="Extends" style="edgeLabel;html=1;align=center;verticalAlign=middle;resizable=0;points=[];" vertex="1" connectable="0" parent="1">
                    <mxGeometry x="260.5042556341804" y="699.9984722494869" as="geometry"/>
                </mxCell>
                <mxCell id="86" value="Extends" style="edgeLabel;html=1;align=center;verticalAlign=middle;resizable=0;points=[];" vertex="1" connectable="0" parent="1">
                    <mxGeometry x="430.0042556341804" y="339.9984722494869" as="geometry"/>
                </mxCell>
                <mxCell id="87" value="Extends" style="edgeLabel;html=1;align=center;verticalAlign=middle;resizable=0;points=[];" vertex="1" connectable="0" parent="1">
                    <mxGeometry x="590.5042556341805" y="459.9984722494869" as="geometry"/>
                </mxCell>
            </root>
        </mxGraphModel>
    </diagram>
</mxfile>